<svg xmlns="http://www.w3.org/2000/svg" width="334.686" height="148.975" viewBox="0 0 334.686 148.975">
  <g id="Link" transform="translate(-616.935 -444.602)">
    <path id="Path_1" data-name="Path 1" d="M981.121,457.938v31.1S898,481.841,899.411,531.11c5.488,51.83,76.831,45.123,76.831,45.123l-.088,28.251S864.321,616.54,863.435,531.11C868.574,443.881,981.121,457.938,981.121,457.938Z" transform="translate(-246 -12)" fill="#005cf7" stroke="#707070" stroke-width="1"/>
    <path id="Path_3" data-name="Path 3" d="M863.435,457.938v31.1s83.125-7.195,81.709,42.074c-5.488,51.83-76.831,45.123-76.831,45.123l.088,28.251S980.235,616.54,981.121,531.11C975.982,443.881,863.435,457.938,863.435,457.938Z" transform="translate(-30 -12)" fill="#005cf7" stroke="#707070" stroke-width="1"/>
    <path id="Path_2" data-name="Path 2" d="M981.121,520.089v33.259h96.474V520.089Z" transform="translate(-245 -15)" fill="#005cf7" stroke="#707070" stroke-width="1"/>
  </g>
</svg>
